<?xml version="1.0"?>

<!-- Created with Inkscape (http://www.inkscape.org/) -->

<svg xmlns:dc="http://purl.org/dc/elements/1.1/" xmlns:cc="http://creativecommons.org/ns#" xmlns:rdf="http://www.w3.org/1999/02/22-rdf-syntax-ns#" xmlns:svg="http://www.w3.org/2000/svg" xmlns="http://www.w3.org/2000/svg" xmlns:sodipodi="http://sodipodi.sourceforge.net/DTD/sodipodi-0.dtd" xmlns:inkscape="http://www.inkscape.org/namespaces/inkscape" width="99.905602mm" height="41.214844mm" viewBox="0 0 353.99623 146.03685" id="svg6154" version="1.1" inkscape:version="0.91 r13725" sodipodi:docname="flisol.svg">
  <defs id="defs6156"></defs>
  <sodipodi:namedview id="base" pagecolor="#ffffff" bordercolor="#666666" borderopacity="1.0" inkscape:pageopacity="0.0" inkscape:pageshadow="2" inkscape:zoom="0.35" inkscape:cx="180.56954" inkscape:cy="-192.69586" inkscape:document-units="px" inkscape:current-layer="layer1" showgrid="false" fit-margin-top="0" fit-margin-left="0" fit-margin-right="0" fit-margin-bottom="0" inkscape:window-width="1280" inkscape:window-height="708" inkscape:window-x="0" inkscape:window-y="28" inkscape:window-maximized="1"></sodipodi:namedview>
  <metadata id="metadata6159">
    <rdf:rdf>
      <cc:work rdf:about="">
        <dc:format>image/svg+xml</dc:format>
        <dc:type rdf:resource="http://purl.org/dc/dcmitype/StillImage"></dc:type>
        <dc:title></dc:title>
      </cc:work>
    </rdf:rdf>
  </metadata>
  <g inkscape:label="Layer 1" inkscape:groupmode="layer" id="layer1" transform="translate(-194.43046,-193.6295)">
    <g id="g18404-5-9" transform="matrix(1.2015552,0,0,1.2015552,59.906409,-765.24271)">
      <g style="stroke:#000000;stroke-opacity:1" id="g7023-3-6" transform="matrix(0.54547364,0,0,0.54547364,494.96636,248.11697)">
        <g style="stroke:#000000;stroke-opacity:1" id="g7025-6-7" transform="translate(-1.9999988,247.45081)">
          <path sodipodi:nodetypes="cssc" inkscape:connector-curvature="0" id="path7027-9-9" d="m -684.31429,924.90515 0,-82.48626 c 0,-12.61496 10.15573,-22.77069 22.77069,-22.77069 l 14.23292,0" style="color:#000000;display:inline;overflow:visible;visibility:visible;fill:none;stroke:#000000;stroke-width:16;stroke-linecap:round;stroke-linejoin:round;stroke-miterlimit:4;stroke-dashoffset:0;stroke-opacity:1;marker:none;enable-background:accumulate"></path>
          <path sodipodi:nodetypes="cc" inkscape:connector-curvature="0" id="path7029-8-4" d="m -692.04297,869.41923 39.41039,0" style="fill:none;stroke:#000000;stroke-width:16;stroke-linecap:round;stroke-linejoin:round;stroke-opacity:1"></path>
        </g>
        <path style="color:#000000;display:inline;overflow:visible;visibility:visible;fill:none;stroke:#000000;stroke-width:16;stroke-linecap:round;stroke-linejoin:round;stroke-miterlimit:4;stroke-dasharray:none;stroke-dashoffset:0;stroke-opacity:1;marker:none;enable-background:accumulate" d="m -572.936,1066.7216 0,105.6344" id="path7031-2-8" inkscape:connector-curvature="0" sodipodi:nodetypes="cc"></path>
        <path sodipodi:nodetypes="csssccsssc" inkscape:connector-curvature="0" id="path7033-3-8" d="m -545.50603,1172.356 25.07235,0 c 13.24816,0 23.91365,-10.6102 23.91365,-23.7897 l 0,-4.7579 c 0,-13.1795 -10.66575,-23.8721 -23.91365,-23.7897 -15.00464,0.093 8.10144,0.1866 -6.90318,0.2799 -13.24816,0 -23.91366,-10.6102 -23.91366,-23.7897 l 0,-4.7579 c 0,-13.1795 10.6655,-23.7897 23.91366,-23.7897 l 25.07235,0" style="color:#000000;display:inline;overflow:visible;visibility:visible;fill:none;stroke:#000000;stroke-width:16;stroke-linecap:round;stroke-linejoin:round;stroke-miterlimit:4;stroke-dashoffset:0;stroke-opacity:1;marker:none;enable-background:accumulate"></path>
        <rect rx="5.9585457" style="color:#000000;display:inline;overflow:visible;visibility:visible;fill:none;stroke:#000000;stroke-width:16;stroke-linecap:round;stroke-linejoin:round;stroke-miterlimit:4;stroke-dasharray:none;stroke-dashoffset:0;stroke-opacity:1;marker:none;enable-background:accumulate" id="rect7036-0-8" width="50.704243" height="74.238625" x="-476.8345" y="1098.1173" ry="5.9585457"></rect>
        <path sodipodi:nodetypes="cssc" inkscape:connector-curvature="0" id="path7038-9-4" d="m -629.62515,1067.099 0,82.4863 c 0,12.6149 10.15573,22.7707 22.77069,22.7707 l 14.23292,0" style="color:#000000;display:inline;overflow:visible;visibility:visible;fill:none;stroke:#000000;stroke-width:16;stroke-linecap:round;stroke-linejoin:round;stroke-miterlimit:4;stroke-dashoffset:0;stroke-opacity:1;marker:none;enable-background:accumulate"></path>
        <path style="color:#000000;display:inline;overflow:visible;visibility:visible;fill:none;stroke:#000000;stroke-width:16;stroke-linecap:round;stroke-linejoin:round;stroke-miterlimit:4;stroke-dashoffset:0;stroke-opacity:1;marker:none;enable-background:accumulate" d="m -405.33322,1067.099 0,82.4863 c 0,12.6149 10.15573,22.7707 22.77069,22.7707 l 14.23292,0" id="path7040-1-8" inkscape:connector-curvature="0" sodipodi:nodetypes="cssc"></path>
      </g>
      <g style="fill:#000000;fill-opacity:1" transform="matrix(0.57652304,0,0,0.57652304,464.02457,550.71697)" id="g7042-4-4">
        <path inkscape:connector-curvature="0" id="path7044-0-2" d="m -190.88509,549.55846 52.06891,51.75565 30.52019,-28.21031 -25.50547,-24.15111 -17.03141,16.57766 11.89183,11.39756 14.43039,-10.95934 1.2388,1.24669 -12.28329,12.79749 c -1.84296,1.8475 -3.85708,2.44832 -6.23129,0.42626 l -12.36732,-11.93974 c -1.48001,-1.85516 -1.80691,-3.67653 -0.58243,-5.45242 0,0 7.48483,-9.96501 17.76225,-18.95535 3.20411,-2.34714 5.98904,-1.76686 8.51775,0.60274 l 27.17969,23.66823 c 2.50926,2.87645 1.97316,6.47897 -0.64957,9.16365 l -31.25806,33.34621 c -2.95385,3.42313 -9.81213,3.20417 -12.78844,-0.10338 l -54.50543,-52.12566 z" style="color:#000000;display:inline;overflow:visible;visibility:visible;fill:#000000;fill-opacity:1;fill-rule:nonzero;stroke:none;stroke-width:2.59126377;marker:none;enable-background:accumulate" sodipodi:nodetypes="cccccccccccccccccccc"></path>
        <path sodipodi:nodetypes="cccccccccccccccccccc" style="color:#000000;display:inline;overflow:visible;visibility:visible;fill:#000000;fill-opacity:1;fill-rule:nonzero;stroke:none;stroke-width:2.59126377;marker:none;enable-background:accumulate" d="m -219.23273,519.18943 -52.06891,-51.75566 -30.52019,28.21032 25.50547,24.15111 17.03141,-16.57766 -11.89183,-11.39757 -14.43039,10.95934 -1.2388,-1.24669 12.28329,-12.79748 c 1.84296,-1.8475 3.85708,-2.44833 6.23129,-0.42627 l 12.36732,11.93975 c 1.48001,1.85515 1.80691,3.67652 0.58243,5.45241 0,0 -7.48483,9.96501 -17.76225,18.95535 -3.20411,2.34714 -5.98904,1.76686 -8.51775,-0.60274 l -27.17969,-23.66823 c -2.50926,-2.87645 -1.97316,-6.47896 0.64957,-9.16364 l 31.25806,-33.34622 c 2.95385,-3.42313 9.81213,-3.20417 12.78844,0.10339 l 54.50543,52.12565 z" id="path7046-2-0" inkscape:connector-curvature="0"></path>
        <path sodipodi:nodetypes="cccccccccccccccccccc" style="color:#000000;display:inline;overflow:visible;visibility:visible;fill:#000000;fill-opacity:1;fill-rule:nonzero;stroke:none;stroke-width:2.59126377;marker:none;enable-background:accumulate" d="m -189.8744,520.20012 51.75566,-52.06891 -28.21032,-30.52019 -24.15111,25.50547 16.57766,17.03141 11.39757,-11.89183 -10.95934,-14.43039 1.24669,-1.2388 12.79748,12.28329 c 1.8475,1.84296 2.44833,3.85708 0.42627,6.23129 l -11.93975,12.36732 c -1.85515,1.48001 -3.67652,1.80691 -5.45241,0.58243 0,0 -9.96501,-7.48483 -18.95535,-17.76225 -2.34714,-3.20411 -1.76686,-5.98904 0.60274,-8.51775 l 23.66823,-27.17969 c 2.87645,-2.50926 6.47896,-1.97316 9.16364,0.64957 l 33.34622,31.25806 c 3.42313,2.95385 3.20417,9.81213 -0.10339,12.78844 l -52.12565,54.50543 z" id="path7048-7-4" inkscape:connector-curvature="0"></path>
        <path inkscape:connector-curvature="0" id="path7050-4-4" d="m -220.24343,548.54776 -51.75566,52.06891 28.21032,30.52019 24.15111,-25.50547 -16.57766,-17.03141 -11.39757,11.89183 10.95934,14.43039 -1.24669,1.2388 -12.79748,-12.28329 c -1.8475,-1.84296 -2.44833,-3.85708 -0.42627,-6.23129 l 11.93975,-12.36732 c 1.85515,-1.48001 3.67652,-1.80691 5.45241,-0.58243 0,0 9.96501,7.48483 18.95535,17.76225 2.34714,3.20411 1.76686,5.98904 -0.60274,8.51775 l -23.66823,27.17969 c -2.87645,2.50926 -6.47896,1.97316 -9.16364,-0.64957 l -33.34622,-31.25806 c -3.42313,-2.95385 -3.20417,-9.81213 0.10339,-12.78844 l 52.12565,-54.50543 z" style="color:#000000;display:inline;overflow:visible;visibility:visible;fill:#000000;fill-opacity:1;fill-rule:nonzero;stroke:none;stroke-width:2.59126377;marker:none;enable-background:accumulate" sodipodi:nodetypes="cccccccccccccccccccc"></path>
        <g style="fill:#000000;fill-opacity:1" transform="matrix(1.0923337,0.25861982,-0.25861982,1.0923337,160.90403,65.72318)" id="g7052-5-0">
          <path sodipodi:nodetypes="ccsccc" inkscape:connector-curvature="0" id="path7054-1-3" d="m -212.37363,517.74995 15.31813,45.99113 c 0,0 10.85389,-5.00739 11.41711,1.79622 0.56321,6.80362 -14.99811,6.05293 -14.99811,6.05293 l -14.63562,-53.47392 z" style="color:#000000;display:inline;overflow:visible;visibility:visible;fill:#000000;fill-opacity:1;fill-rule:nonzero;stroke:none;stroke-width:2.59126377;marker:none;enable-background:accumulate"></path>
          <ellipse ry="7.0285716" rx="4.8000002" cy="505.67648" cx="-148.45714" transform="matrix(0.20486933,-0.97878933,0.97878933,0.20486933,-662.31715,286.99496)" id="path7056-5-5" style="color:#000000;display:inline;overflow:visible;visibility:visible;fill:#000000;fill-opacity:1;fill-rule:nonzero;stroke:none;stroke-width:2.59126377;marker:none;enable-background:accumulate"></ellipse>
          <ellipse ry="7.0285716" rx="4.8000002" cy="505.67648" cx="-148.45714" style="color:#000000;display:inline;overflow:visible;visibility:visible;fill:#000000;fill-opacity:1;fill-rule:nonzero;stroke:none;stroke-width:2.59126377;marker:none;enable-background:accumulate" id="path7058-9-2" transform="matrix(0.20486933,-0.97878933,0.97878933,0.20486933,-654.32827,298.52421)"></ellipse>
          <path style="color:#000000;display:inline;overflow:visible;visibility:visible;fill:#000000;fill-opacity:1;fill-rule:nonzero;stroke:none;stroke-width:2.59126377;marker:none;enable-background:accumulate" d="m -229.74419,444.99793 -15.31813,-45.99112 c 0,0 -10.85389,5.00739 -11.41711,-1.79622 -0.56321,-6.80363 14.99811,-6.05293 14.99811,-6.05293 l 14.63562,53.47391 z" id="path7060-6-1" inkscape:connector-curvature="0" sodipodi:nodetypes="ccsccc"></path>
          <ellipse ry="7.0285716" rx="4.8000002" cy="505.67648" cx="-148.45714" style="color:#000000;display:inline;overflow:visible;visibility:visible;fill:#000000;fill-opacity:1;fill-rule:nonzero;stroke:none;stroke-width:2.59126377;marker:none;enable-background:accumulate" id="path7062-4-1" transform="matrix(-0.20486933,0.97878933,-0.97878933,-0.20486933,220.19933,675.75292)"></ellipse>
          <ellipse ry="7.0285716" rx="4.8000002" cy="505.67648" cx="-148.45714" transform="matrix(-0.20486933,0.97878933,-0.97878933,-0.20486933,212.21045,664.22368)" id="path7064-3-1" style="color:#000000;display:inline;overflow:visible;visibility:visible;fill:#000000;fill-opacity:1;fill-rule:nonzero;stroke:none;stroke-width:2.59126377;marker:none;enable-background:accumulate"></ellipse>
          <path style="color:#000000;display:inline;overflow:visible;visibility:visible;fill:#000000;fill-opacity:1;fill-rule:nonzero;stroke:none;stroke-width:2.59126377;marker:none;enable-background:accumulate" d="m -184.6829,472.68866 45.99112,-15.31813 c 0,0 -5.00739,-10.85389 1.79622,-11.41711 6.80363,-0.56321 6.05293,14.99811 6.05293,14.99811 l -53.47391,14.63562 z" id="path7067-5-4" inkscape:connector-curvature="0" sodipodi:nodetypes="ccsccc"></path>
          <ellipse ry="7.0285716" rx="4.8000002" cy="505.67648" cx="-148.45714" style="color:#000000;display:inline;overflow:visible;visibility:visible;fill:#000000;fill-opacity:1;fill-rule:nonzero;stroke:none;stroke-width:2.59126377;marker:none;enable-background:accumulate" id="path7069-6-4" transform="matrix(-0.97878933,-0.20486933,0.20486933,-0.97878933,-415.43789,922.63218)"></ellipse>
          <ellipse ry="7.0285716" rx="4.8000002" cy="505.67648" cx="-148.45714" transform="matrix(-0.97878933,-0.20486933,0.20486933,-0.97878933,-403.90865,914.6433)" id="path7071-5-6" style="color:#000000;display:inline;overflow:visible;visibility:visible;fill:#000000;fill-opacity:1;fill-rule:nonzero;stroke:none;stroke-width:2.59126377;marker:none;enable-background:accumulate"></ellipse>
          <path sodipodi:nodetypes="ccsccc" inkscape:connector-curvature="0" id="path7073-8-3" d="m -257.43493,490.05922 -45.99112,15.31813 c 0,0 5.00739,10.85389 -1.79622,11.41711 -6.80363,0.56321 -6.05293,-14.99811 -6.05293,-14.99811 l 53.47391,-14.63562 z" style="color:#000000;display:inline;overflow:visible;visibility:visible;fill:#000000;fill-opacity:1;fill-rule:nonzero;stroke:none;stroke-width:2.59126377;marker:none;enable-background:accumulate"></path>
          <ellipse ry="7.0285716" rx="4.8000002" cy="505.67648" cx="-148.45714" transform="matrix(0.97878933,0.20486933,-0.20486933,0.97878933,-26.67994,40.115699)" id="path7075-6-1" style="color:#000000;display:inline;overflow:visible;visibility:visible;fill:#000000;fill-opacity:1;fill-rule:nonzero;stroke:none;stroke-width:2.59126377;marker:none;enable-background:accumulate"></ellipse>
          <ellipse ry="7.0285716" rx="4.8000002" cy="505.67648" cx="-148.45714" style="color:#000000;display:inline;overflow:visible;visibility:visible;fill:#000000;fill-opacity:1;fill-rule:nonzero;stroke:none;stroke-width:2.59126377;marker:none;enable-background:accumulate" id="path7077-8-4" transform="matrix(0.97878933,0.20486933,-0.20486933,0.97878933,-38.209184,48.104584)"></ellipse>
        </g>
      </g>
      <circle r="53" cy="530.36218" cx="-207" transform="matrix(0.57652304,0,0,0.57652304,465.14365,553.02987)" id="path7079-3-3" style="color:#000000;display:inline;overflow:visible;visibility:visible;fill:#0159d3;fill-opacity:1;fill-rule:nonzero;stroke:#000000;stroke-width:5.67686224;stroke-opacity:1;marker:none;enable-background:accumulate"></circle>
      <path sodipodi:nodetypes="cccccccccccccccccccssccccccccscccccccsccc" style="font-size:12px;fill:#ccff00;fill-opacity:1;fill-rule:nonzero;stroke:#ffffff;stroke-width:0.54547364;stroke-opacity:1" d="m 330.27083,835.78167 c -0.43742,0.018 -0.82314,0.1269 -1.11688,0.3681 -0.16264,1.574 0.39216,3.594 1.594,4.6992 -0.10373,-0.1344 -0.22885,-0.378 -0.40122,-0.7795 -0.53327,-0.9071 -1.4929,-4.9297 0.35784,-2.9885 1.08498,2.2792 1.43826,5.0609 3.12294,7.0813 1.28394,2.1083 3.72313,2.2444 5.77959,2.7718 1.78554,0.8663 2.35992,3.4307 4.28318,3.9414 1.36933,1.7802 -0.34853,4.0086 -1.0952,5.7278 -1.49795,2.6534 1.57547,4.2641 2.54822,6.3449 1.9684,2.7171 3.83521,6.315 2.35305,9.7341 -0.87589,2.4736 -1.08851,5.2063 -1.71327,7.785 -0.27796,1.8293 -0.67244,5.6728 1.30122,6.031 0.39565,-1.9782 0.23914,-4.1073 1.83255,-5.5978 1.56741,-2.9823 4.62101,-4.8424 6.93985,-6.9513 1.06944,-1.2708 3.14195,-4.1551 5.19404,-5.5655 0.91003,-1.5402 0.63779,-4.1576 2.30966,-5.6846 1.28082,-1.3547 1.91714,-4.4995 -0.54217,-4.8723 -3.27785,-1.3067 -5.97421,-3.7869 -8.15433,-6.5941 -2.36105,-1.2718 -3.84356,-1.6191 -6.36184,-2.4294 -0.15324,-0.05 -0.36372,1.3227 -0.82274,1.3181 -0.62773,-0.01 0.14479,-1.7558 -1.21913,-1.7038 -0.22844,0.7522 -1.53263,1.9417 -2.42895,2.1979 -0.34602,-0.5644 -1.57441,-1.7492 -1.48556,-2.7068 -0.0408,-1.929 -2.50484,-1.9765 -1.56147,-3.8114 -0.56355,-1.6166 -2.82738,2.3735 -3.75184,-0.3573 -0.54654,-2.3723 -0.64164,-6.3916 -2.83016,-6.843 -1.05475,-0.4177 -2.81913,-1.1689 -4.13138,-1.1153 z m 13.54454,6.6684 c 0.21671,0.068 1.18463,-0.2272 2.25025,-0.2102 1.00428,0.016 2.68009,0.8428 2.98388,0.5792 -0.47346,-1.5699 -3.81267,-1.2812 -3.74987,-1.2739 -0.50452,0.4245 -1.84536,0.7694 -1.48426,0.9049 z m 10.99347,2.9844 c -0.0834,0.1473 -0.50752,0.1841 -0.50798,-0.1179 0.16662,-0.2918 0.49104,-0.041 0.50798,0.1179 z m -2.01712,-0.5822 c -1.89623,-0.059 -0.64962,-1.0244 -1.65644,-1.0025 -0.70575,0.015 -0.50561,0.7561 -1.72908,0.6421 1.12476,0.5297 1.20053,0.3993 1.98415,0.8179 1.11204,-0.066 1.7949,-0.05 1.40137,-0.4575 z" id="path7081-4-6" inkscape:connector-curvature="0"></path>
    </g>
  </g>
</svg>
