<?xml version="1.0"?>

<!-- Created with Inkscape (http://www.inkscape.org/) -->

<svg xmlns:dc="http://purl.org/dc/elements/1.1/" xmlns:cc="http://creativecommons.org/ns#" xmlns:rdf="http://www.w3.org/1999/02/22-rdf-syntax-ns#" xmlns:svg="http://www.w3.org/2000/svg" xmlns="http://www.w3.org/2000/svg" xmlns:sodipodi="http://sodipodi.sourceforge.net/DTD/sodipodi-0.dtd" xmlns:inkscape="http://www.inkscape.org/namespaces/inkscape" width="92.509338mm" height="51.647232mm" viewBox="0 0 327.78899 183.002" id="svg3518" version="1.1" inkscape:version="0.91 r13725" sodipodi:docname="librebase.svg">
  <defs id="defs3520"></defs>
  <sodipodi:namedview id="base" pagecolor="#ffffff" bordercolor="#666666" borderopacity="1.0" inkscape:pageopacity="0.0" inkscape:pageshadow="2" inkscape:zoom="0.35" inkscape:cx="256.03736" inkscape:cy="120.07243" inkscape:document-units="px" inkscape:current-layer="layer1" showgrid="false" fit-margin-top="0" fit-margin-left="0" fit-margin-right="0" fit-margin-bottom="0" inkscape:window-width="1280" inkscape:window-height="708" inkscape:window-x="0" inkscape:window-y="28" inkscape:window-maximized="1"></sodipodi:namedview>
  <metadata id="metadata3523">
    <rdf:rdf>
      <cc:work rdf:about="">
        <dc:format>image/svg+xml</dc:format>
        <dc:type rdf:resource="http://purl.org/dc/dcmitype/StillImage"></dc:type>
        <dc:title></dc:title>
      </cc:work>
    </rdf:rdf>
  </metadata>
  <g inkscape:label="Layer 1" inkscape:groupmode="layer" id="layer1" transform="translate(-118.96264,-469.43263)">
    <g transform="translate(19.63564,319.88263)" id="g3">
      <g id="g5">
        <g id="g7">
          <path inkscape:connector-curvature="0" d="m 352.671,172.389 c -3.707,0 -6.707,3.011 -6.707,6.717 0,3.706 3,6.706 6.707,6.706 3.705,0 6.727,-3 6.727,-6.706 0,-3.706 -3.022,-6.717 -6.727,-6.717 z" id="path9"></path>
          <path inkscape:connector-curvature="0" d="m 304.978,186.238 c 3.707,0 6.717,-3.021 6.717,-6.706 0,-3.717 -3.01,-6.717 -6.717,-6.717 -3.699,0 -6.711,3 -6.711,6.717 0,3.685 3.012,6.706 6.711,6.706 z" id="path11"></path>
          <path inkscape:connector-curvature="0" d="m 426.67,222.375 c -0.893,-5.19 -3.063,-9.322 -5.928,-12.479 -3.748,-4.121 -8.658,-6.603 -13.465,-7.682 3.654,-1.754 6.498,-4.163 8.668,-6.914 2.793,-3.561 4.455,-7.724 5.201,-11.866 0.332,-1.827 0.504,-3.675 0.504,-5.45 0,-3.229 -0.373,-6.094 -0.992,-8.658 -1.691,-7.028 -5.396,-11.721 -9.664,-14.752 -5.33,-3.789 -11.492,-5.024 -15.604,-5.024 l -73.676,0 0,95.799 -17.691,0 c -9.852,0 -12.354,-5.014 -12.354,-10.63 l 0,-85.169 -13.433,0 0,87.193 c 0.468,15.323 7.496,20.015 23.441,20.461 l 20.037,0 0,14.835 0,-0.01 0,22.569 c 0,22.61 9.893,37.954 33.189,37.954 2.127,0 4.121,-0.177 6.004,-0.478 l 0,-15.934 c -1.816,0.343 -3.793,0.519 -6.004,0.519 -13.943,0 -19.777,-9.519 -19.777,-21.873 l 0,-26.276 c 0.01,0 0.021,0 0.021,0 l 0,-11.305 58.369,0 c 20,0 33.6,-8.741 33.6,-29.369 0.001,-1.931 -0.155,-3.748 -0.446,-5.461 z m -32.993,22.975 -58.529,0 0,-37.363 0.02,0 0,-10.921 -0.02,0 0,-35.65 54.771,0 c 0.949,0 1.91,0.073 2.855,0.176 2.076,0.25 4.109,0.8 6,1.651 5.076,2.294 8.965,6.935 8.965,14.742 0,0.54 -0.027,1.08 -0.068,1.619 -0.332,3.977 -1.879,8.149 -4.516,11.44 -2.492,3.104 -5.98,5.409 -10.381,5.907 l 0,5.616 0,4.018 0,1.401 0.742,0 c 0.098,0 0.213,0.011 0.305,0.011 6.785,0.083 15.666,2.605 18.381,12.914 0.529,2.014 0.846,4.298 0.846,6.925 0,12.354 -8.439,17.514 -19.371,17.514 z" id="path13"></path>
        </g>
      </g>
      <g id="g15">
        <g id="g17">
          <path inkscape:connector-curvature="0" d="m 111.278,150.339 0,31.58 c 0,1.827 0.988,2.73 2.989,2.73 l 14.866,0 0.571,8.959 c -4.15,0.519 -10.869,0.768 -20.143,0.768 -3.262,0 -5.785,-0.882 -7.561,-2.637 -1.78,-1.744 -2.673,-4.101 -2.673,-7.028 l 0,-34.373 11.951,0 z" id="path19"></path>
          <path inkscape:connector-curvature="0" d="m 144.135,194.18 -11.821,0 0,-43.84 11.821,0 0,43.84 z" id="path21"></path>
          <path inkscape:connector-curvature="0" d="m 175.973,171.237 0,0.374 c 3.304,0.312 5.673,1.412 7.121,3.322 1.433,1.91 2.154,4.671 2.154,8.316 0,4.36 -1.191,7.37 -3.556,8.99 -2.375,1.63 -6.333,2.45 -11.884,2.45 -8.775,0 -15.406,-0.166 -19.894,-0.509 l 0,-43.84 c 4.064,-0.343 10.021,-0.52 17.856,-0.52 6.018,0 10.188,0.8 12.524,2.398 2.331,1.567 3.488,4.599 3.488,9.042 0,3.188 -0.61,5.575 -1.845,7.184 -1.223,1.62 -3.211,2.544 -5.964,2.793 z m -14.369,-3.436 5.85,0 c 1.952,0 3.268,-0.322 3.94,-0.965 0.68,-0.665 1.014,-1.973 1.014,-3.914 0,-1.91 -0.357,-3.166 -1.076,-3.789 -0.719,-0.612 -2.118,-0.924 -4.197,-0.924 l -5.53,0 0,9.592 z m 0,18.437 6.104,0.073 c 2.247,0 3.739,-0.364 4.482,-1.08 0.736,-0.727 1.11,-2.17 1.11,-4.329 0,-2.325 -0.374,-3.883 -1.142,-4.65 -0.766,-0.748 -2.295,-1.143 -4.578,-1.143 l -5.978,0 0,11.129 z" id="path23"></path>
          <path inkscape:connector-curvature="0" d="m 226.241,194.18 -12.52,0 -3.117,-13.215 c -0.296,-1.277 -0.753,-2.139 -1.365,-2.605 -0.61,-0.457 -1.534,-0.706 -2.759,-0.706 l -5.408,0 0,16.527 -11.755,0 0,-43.84 c 4.145,-0.437 10.063,-0.644 17.731,-0.644 6.313,0 10.805,0.965 13.467,2.886 2.674,1.931 4.005,5.378 4.005,10.34 0,6.447 -2.881,9.977 -8.64,10.62 l 0,0.363 c 3.688,0.603 5.931,2.855 6.737,6.737 l 3.624,13.537 z m -25.169,-25.237 5.72,0 c 2.245,0 3.763,-0.354 4.55,-1.069 0.778,-0.717 1.17,-2.118 1.17,-4.184 0,-2.087 -0.392,-3.478 -1.17,-4.194 -0.787,-0.737 -2.305,-1.101 -4.55,-1.101 l -5.72,0 0,10.548 z" id="path25"></path>
          <path inkscape:connector-curvature="0" d="m 260.24,185.106 0.574,8.565 c -4.158,0.478 -11.407,0.706 -21.739,0.706 -3,0 -5.427,-0.862 -7.246,-2.575 -1.816,-1.733 -2.73,-3.997 -2.73,-6.831 l 0,-25.424 c 0,-2.834 0.919,-5.107 2.759,-6.831 1.848,-1.713 4.252,-2.585 7.218,-2.585 10.332,0 17.581,0.239 21.739,0.706 l -0.574,8.585 -16.459,0 c -1.82,0 -2.744,0.914 -2.744,2.741 l 0,5.315 16.85,0 0,8.211 -16.85,0 0,6.675 c 0,1.827 0.924,2.741 2.744,2.741 l 16.458,0 z" id="path27"></path>
        </g>
        <g id="g29">
          <path inkscape:connector-curvature="0" d="m 124.395,227.4 0,0.301 c 3.743,0.353 6.405,1.651 7.973,3.924 1.572,2.284 2.358,5.564 2.358,9.852 0,5.191 -1.206,8.731 -3.628,10.641 -2.421,1.889 -6.654,2.844 -12.694,2.844 -7.835,0 -13.895,-0.218 -18.191,-0.612 l 0,-51.647 c 3.74,-0.415 9.061,-0.612 15.949,-0.612 6.387,0 10.82,0.935 13.286,2.813 2.471,1.869 3.711,5.419 3.711,10.672 0,3.737 -0.7,6.571 -2.097,8.492 -1.401,1.92 -3.623,3.031 -6.667,3.332 z m -19.393,-1.723 12.206,0 c 4.244,-0.052 7.168,-0.716 8.764,-2.024 1.589,-1.298 2.385,-3.811 2.385,-7.558 0,-3.894 -0.882,-6.499 -2.647,-7.817 -1.775,-1.329 -5.015,-1.983 -9.699,-1.983 -5.486,0 -9.159,0.01 -11.009,0.073 l 0,19.309 z m 0,3.821 0,21.115 c 4.186,0.114 8.458,0.156 12.805,0.156 4.54,0 7.662,-0.696 9.362,-2.024 1.692,-1.35 2.541,-4.008 2.541,-7.942 0,-4.35 -0.896,-7.287 -2.691,-8.824 -1.796,-1.557 -5.068,-2.377 -9.81,-2.48 l -12.207,0 z" id="path31"></path>
          <path inkscape:connector-curvature="0" d="m 171.495,237.293 -22.54,0 -5.694,17.057 -5.082,0 17.293,-50.235 c 0.298,-0.955 0.944,-1.412 1.941,-1.412 l 5.618,0 c 1,0 1.646,0.457 1.941,1.412 l 17.304,50.235 -5.1,0 -5.681,-17.057 z m -1.425,-4.276 -7.415,-22.248 c -0.046,-0.238 -0.246,-0.872 -0.597,-1.899 -0.348,-1.028 -0.6,-1.786 -0.748,-2.284 l -2.102,0 -1.422,4.184 -7.415,22.248 19.699,0 z" id="path33"></path>
          <path inkscape:connector-curvature="0" d="m 206.535,231.584 -11.01,-2.315 c -3.646,-0.748 -6.239,-2.232 -7.786,-4.443 -1.544,-2.232 -2.325,-5.409 -2.325,-9.562 0,-2.99 0.301,-5.388 0.9,-7.215 0.598,-1.827 1.653,-3.187 3.15,-4.08 1.488,-0.893 3.146,-1.474 4.942,-1.775 1.79,-0.259 4.238,-0.373 7.331,-0.321 5.539,0 10.512,0.395 14.897,1.204 l -0.371,3.571 c -5.886,-0.28 -10.651,-0.426 -14.3,-0.426 -2.442,0 -4.238,0.052 -5.389,0.166 -1.157,0.135 -2.286,0.498 -3.404,1.111 -1.127,0.582 -1.879,1.505 -2.25,2.761 -0.379,1.246 -0.568,2.969 -0.568,5.16 0,3.093 0.542,5.336 1.621,6.706 1.067,1.37 2.899,2.294 5.5,2.803 l 10.786,2.232 c 3.833,0.768 6.546,2.252 8.113,4.464 1.581,2.232 2.361,5.46 2.361,9.707 0,3 -0.324,5.409 -0.973,7.267 -0.651,1.827 -1.724,3.229 -3.221,4.184 -1.495,0.944 -3.2,1.588 -5.09,1.91 -1.895,0.322 -4.389,0.488 -7.487,0.488 -5.687,0 -10.935,-0.384 -15.723,-1.121 l 0.299,-3.675 c 6.191,0.301 11.38,0.457 15.571,0.457 4.54,-0.042 7.615,-0.685 9.211,-1.879 1.597,-1.204 2.398,-3.769 2.398,-7.713 0,-3.229 -0.54,-5.543 -1.612,-6.883 -1.068,-1.35 -2.921,-2.275 -5.571,-2.783 z" id="path35"></path>
          <path inkscape:connector-curvature="0" d="m 258.042,250.239 0.299,3.737 c -4.69,0.311 -12.048,0.457 -22.079,0.457 -2.756,0 -4.962,-0.789 -6.633,-2.315 -1.664,-1.557 -2.51,-3.623 -2.51,-6.229 l 0,-34.736 c 0,-2.585 0.846,-4.671 2.51,-6.208 1.671,-1.557 3.877,-2.326 6.633,-2.326 10.031,0 17.389,0.156 22.079,0.457 l -0.299,3.727 -20.96,0 c -3.348,0 -5.017,1.827 -5.017,5.471 l 0,12.655 23.052,0 0,3.977 -23.052,0 0,15.945 c 0,3.592 1.669,5.388 5.017,5.388 l 20.96,0 z" id="path37"></path>
        </g>
      </g>
    </g>
  </g>
</svg>
